<?xml version="1.0" encoding="UTF-8"?>
<!DOCTYPE svg PUBLIC "-//W3C//DTD SVG 1.1//EN" "http://www.w3.org/Graphics/SVG/1.1/DTD/svg11.dtd">
<!-- Creator: CorelDRAW -->
<svg xmlns="http://www.w3.org/2000/svg" xml:space="preserve" width="2048px" height="2048px" style="shape-rendering:geometricPrecision; text-rendering:geometricPrecision; image-rendering:optimizeQuality; fill-rule:evenodd; clip-rule:evenodd"
viewBox="0 0 2048 2048"
 xmlns:xlink="http://www.w3.org/1999/xlink">
 <defs>
  <style type="text/css">
   <![CDATA[
    .fil2 {fill:none}
    .fil1 {fill:#424242}
    .fil0 {fill:#424242;fill-rule:nonzero}
   ]]>
  </style>
 </defs>
 <g id="Layer_x0020_1">
  <metadata id="CorelCorpID_0Corel-Layer"/>
  <g id="_257325296">
   <g>
    <path id="_257326832" class="fil0" d="M532.474 718.164c-7.60749,4.09134 -17.0929,1.24016 -21.1843,-6.36733 -4.09134,-7.60749 -1.24016,-17.0929 6.36733,-21.1843 8.263,-4.44567 16.6677,-12.1358 24.2599,-21.411 8.49095,-10.3736 15.6851,-22.3819 20.4354,-33.9603 8.83229,-21.5315 10.5862,-56.1874 4.44567,-87.7477 -5.00197,-25.715 -15.0827,-48.5351 -30.5386,-58.3406 -7.30394,-4.63111 -9.47009,-14.3091 -4.8378,-21.6118 4.63111,-7.30394 14.3091,-9.47009 21.613,-4.8378 23.478,14.8937 37.9925,45.4678 44.5004,78.9119 7.20119,37.0087 4.72205,78.6768 -6.28465,105.504 -5.9504,14.5051 -14.7839,29.3292 -25.0878,41.9185 -9.99331,12.2091 -21.6059,22.6252 -33.6886,29.126z"/>
    <path id="_257327408" class="fil0" d="M583.438 611.201c-4.94174,-5.30906 3.32244,6.4063 1.43622,7.6878 -15.1406,10.2827 -33.1925,22.5378 -53.4154,4.37363 -15.5858,-14.002 -10.5673,-37.0075 -4.77402,-63.5717 5.08111,-23.2914 10.9831,-50.3493 0.774804,-65.4981l-0.0165354 -0.0248032 -0.0307087 -0.046063 -0.0141732 0.00944883 -0.0165354 -0.0248032c-0.115748,-0.173622 -0.225591,-0.348425 -0.333071,-0.523229 -5.16733,-7.663 -7.89449,-11.5571 -14.7532,-15.5126 -7.47166,-4.29331 -10.0488,-13.8331 -5.75434,-21.3059 2.97992,-5.18622 8.48977,-8.01615 14.0811,-7.82245l0 -0.0153543c10.8284,0.381496 19.8603,1.80945 28.7658,4.43504 8.71064,2.56772 17.0138,6.18898 26.6292,11.0421 18.4866,9.33308 33.215,24.4323 43.7492,41.8961 11.4059,18.9083 17.9988,40.8496 19.1327,61.2367 1.04882,18.8587 0.701575,36.965 -4.663,47.6599 -9.88702,19.7091 -25.5272,23.1567 -50.7981,-3.99567z"/>
   </g>
   <g>
    <path id="_257326856" class="fil0" d="M885.553 461.913c-8.31851,-2.36693 -13.1421,-11.0291 -10.7752,-19.3477 2.36575,-8.31733 11.0291,-13.1421 19.3465,-10.7752 9.10276,2.6126 20.5051,2.98937 32.3847,1.65709 13.3028,-1.4941 26.8288,-5.06457 38.3162,-10.0358 21.3319,-9.22914 46.767,-32.7933 64.402,-59.6575 14.4047,-21.9437 23.1473,-45.3615 18.926,-63.1997 -1.95945,-8.4189 3.2752,-16.8366 11.6941,-18.7961 8.4189,-1.96063 16.8366,3.2752 18.7973,11.6941 6.39686,27.0319 -4.54607,59.0091 -23.2122,87.4442 -20.6988,31.5307 -51.5977,59.641 -78.2375,71.1686 -14.387,6.22678 -31.0701,10.6689 -47.2559,12.4854 -15.7122,1.76339 -31.2792,1.12441 -44.3859,-2.6374z"/>
    <path id="_257326688" class="fil0" d="M996.719 420.864c0.142913,-6.97087 -2.09055,7.02048 -4.30158,6.62599 -18.0402,-3.21733 -39.5481,-7.05709 -41.3433,-34.2744 -1.37244,-20.8146 18.3154,-33.7973 41.0492,-48.7867 19.813,-13.0654 42.8197,-28.2378 46.2178,-46.1268l-0.0248032 -0.00236221 0.00590552 -0.0354331c0.0661418,-0.392126 0.144095,-0.777166 0.238583,-1.15748 1.60039,-8.81575 2.31851,-13.4539 0.138189,-21.1925 -2.33268,-8.31733 2.51929,-16.9524 10.8378,-19.2851 5.98701,-1.67953 12.1417,0.36378 15.9874,4.74449 7.26142,7.66182 12.6024,14.8595 17.0492,22.7917 4.42087,7.88268 7.84253,16.2969 11.3563,26.55 6.69449,19.5354 6.68386,40.604 2.02914,60.456 -5.03859,21.5008 -15.6532,41.8181 -29.0906,57.2197 -12.4228,14.237 -25.3276,26.961 -36.639,30.8693 -20.8051,7.18938 -34.3855,-1.26732 -33.5126,-38.341l0.00236221 -0.0555119z"/>
   </g>
   <g>
    <path id="_257327288" class="fil0" d="M1317.19 524.969c-4.26024,-7.50591 -1.62756,-17.0457 5.87835,-21.3059 7.50591,-4.26024 17.0457,-1.62756 21.3059,5.87835 4.62638,8.113 12.5209,16.3158 21.9969,23.6894 10.5213,8.18741 22.7008,15.0709 34.4457,19.5543 21.763,8.3067 56.4343,9.21733 87.7914,2.31024 25.6488,-5.64804 48.2504,-16.2756 57.6378,-31.9122 4.42914,-7.40552 14.0244,-9.81851 21.4299,-5.38819 7.40552,4.42914 9.81733,14.0244 5.38819,21.4299 -14.3445,23.8949 -44.5158,39.1701 -77.7213,46.4847 -36.8634,8.1189 -78.593,6.67678 -105.669,-3.65788 -14.5937,-5.57126 -29.6339,-14.0504 -42.5292,-24.0851 -12.4358,-9.67678 -23.1366,-21.0402 -29.9551,-32.9977z"/>
    <path id="_257326616" class="fil0" d="M1425.41 573.291c5.23111,-5.11536 -6.38032,3.51142 -7.71969,1.63937 -10.6382,-14.8618 -23.3185,-32.5843 -5.64213,-53.2666 13.6158,-15.9295 36.737,-11.478 63.4359,-6.33898 23.413,4.50709 50.615,9.74174 65.4981,-0.830316l0.034252 -0.0248032 0.214961 -0.152362 -0.00472441 -0.00590552 0.022441 -0.0153543 0.186614 -0.124016c7.58977,-5.39174 11.4224,-8.19568 15.2823,-15.2882 4.12441,-7.57323 13.6099,-10.3689 21.1843,-6.24449 5.37993,2.93032 8.34686,8.56536 8.1378,14.2984 -0.142913,10.7374 -1.33937,19.6819 -3.69213,28.4516 -2.3374,8.71536 -5.7567,17.1059 -10.3854,26.8689 -8.85355,18.6662 -23.6055,33.7595 -40.8449,44.7473 -18.704,11.9209 -40.4693,19.0736 -60.7418,20.7036 -18.828,1.51299 -36.9425,1.60866 -47.7827,-3.49843 -19.9311,-9.39095 -23.7414,-24.952 2.81693,-50.9197z"/>
   </g>
   <g>
    <path id="_257326304" class="fil0" d="M1582.1 871.655c2.16378,-8.35158 10.6902,-13.3665 19.0417,-11.2028 8.35158,2.16378 13.3677,10.689 11.2039,19.0417 -2.3752,9.12166 -2.46496,20.5382 -0.833859,32.4248 1.80236,13.135 5.72363,26.5595 11.0244,38.0268 9.77363,21.1406 33.9496,46.0016 61.2119,62.9516 22.2839,13.8567 45.887,22.0193 63.5705,17.3717 8.35158,-2.19803 16.9063,2.79095 19.1032,11.1425 2.19685,8.35158 -2.79095,16.9051 -11.1425,19.1032 -26.9079,7.07127 -59.1685,-3.07796 -88.0631,-21.0437 -32.061,-19.9347 -60.9272,-50.1142 -73.0902,-76.4233 -6.52914,-14.1236 -11.3634,-30.7004 -13.5957,-46.9654 -2.14252,-15.6189 -1.87677,-31.1894 1.56969,-44.4272z"/>
    <path id="_257326664" class="fil0" d="M1625.79 981.786c7.32993,-0.00826772 -7.03347,-1.91339 -6.69095,-4.15512 2.76969,-18.0945 6.07323,-39.6662 33.202,-42.1288 20.8984,-1.89449 34.3394,17.4331 49.8579,39.7536 13.6158,19.5839 29.4343,42.3343 47.4189,45.1512l0.0283465 0.00472441 0.15 0.0236221 0.00472441 -0.0283465 0.0283465 0.00472441c0.264567,0.0437008 0.52441,0.0944883 0.785434,0.151181 8.87363,1.38662 13.5343,1.99252 21.1949,-0.369685 8.25119,-2.53583 16.9961,2.09646 19.5319,10.3476 1.79291,5.83111 0.00354331,11.9091 -4.11142,15.8681 -7.57205,7.56497 -14.7095,13.1504 -22.6181,17.8465 -7.80001,4.62874 -16.1114,8.25355 -26.2311,12.0012 -19.3347,7.16339 -40.4067,7.66182 -60.4016,3.49016 -21.6154,-4.50827 -42.1784,-14.6114 -57.8941,-27.6567 -14.5583,-12.0862 -27.6107,-24.6792 -31.7847,-35.8559 -7.69961,-20.6232 0.427559,-34.4091 37.5296,-34.4481z"/>
   </g>
   <g>
    <path id="_257326280" class="fil0" d="M1529.63 1304.71c7.40552,-4.46221 17.0291,-2.07756 21.4914,5.32678 4.46339,7.40552 2.07874,17.0291 -5.32678,21.4914 -8.11182,4.89331 -16.1386,12.978 -23.2252,22.5626 -7.88032,10.6571 -14.4473,23.002 -18.6614,34.9111 -7.77875,21.9886 -7.84607,56.6776 -0.173622,87.8351 6.27284,25.4799 17.4709,47.8087 33.3839,56.8371 7.50591,4.26142 10.1374,13.8012 5.87717,21.3071 -4.26024,7.50591 -13.8,10.1374 -21.3059,5.87717 -24.1914,-13.7244 -40.1906,-43.5154 -48.3237,-76.552 -9.02953,-36.6721 -8.6256,-78.4205 1.02992,-105.713 5.18977,-14.6681 13.3075,-29.9126 23.0693,-43.1138 9.4193,-12.7394 20.4933,-23.7272 32.165,-30.7689z"/>
    <path id="_257326376" class="fil0" d="M1483.99 1414.06c5.2252,5.08465 -3.66496,-6.25749 -1.84961,-7.6252 14.6126,-11.0114 32.0339,-24.1394 53.1556,-6.96733 16.2638,13.2225 12.385,36.45 7.90512,63.2693 -3.9189,23.4638 -8.46851,50.7107 2.35276,65.3422l0.0177165 -0.0141732 0.0188977 0.0248032c0.212599,0.27874 0.414567,0.563386 0.605906,0.851575 5.42599,7.24725 8.33741,10.9524 15.4193,14.5843 7.67599,3.92126 10.7173,13.3252 6.79607,21.0012 -2.72717,5.33977 -8.10827,8.43544 -13.715,8.50631l0 0.00472441c-10.7988,0.15 -19.8815,-0.833859 -28.924,-3.02008 -8.70827,-2.10709 -17.1827,-5.32205 -27.0921,-9.72639 -18.9366,-8.41772 -34.3985,-22.7788 -45.7807,-39.7051 -12.3354,-18.3437 -20.0067,-39.9296 -22.1421,-60.2162 -1.97953,-18.8185 -2.5311,-36.9366 2.27126,-47.8205 8.9067,-20.1732 24.365,-24.3803 50.9611,1.51063z"/>
   </g>
   <g>
    <path id="_257325944" class="fil0" d="M1189.61 1578.06c8.4189,1.96063 13.6547,10.3784 11.6941,18.7973 -1.95945,8.4189 -10.3772,13.6536 -18.7961,11.6941 -9.2256,-2.1626 -20.6173,-1.98189 -32.3847,-0.0708662 -13.1386,2.13425 -26.4697,6.38032 -37.7705,11.9457 -20.9327,10.311 -45.2044,35.0835 -61.4599,62.7225 -13.3087,22.6299 -20.8925,46.4398 -15.8043,64.0229 2.4,8.28308 -2.36929,16.9477 -10.6536,19.3477 -8.28308,2.39882 -16.9477,-2.37047 -19.3465,-10.6536 -7.72914,-26.7107 1.62047,-59.1945 18.8634,-88.5131 19.1575,-32.5725 48.6036,-62.1839 74.563,-74.9693 13.9913,-6.89056 30.4347,-12.1382 46.5863,-14.7614 15.639,-2.53937 31.2378,-2.67166 44.5087,0.438189z"/>
    <path id="_257326040" class="fil0" d="M1080.59 1624.5c0.186614,7.29213 1.74449,-7.04528 3.99803,-6.75709 18.1725,2.32559 39.8351,5.1 42.9579,32.1177 2.40355,20.7815 -16.6075,34.7067 -38.5595,50.7863 -19.2319,14.087 -41.5748,30.4524 -43.9548,48.5492l-0.00472441 0.034252 -0.00354331 0.0259843 0.00826772 0.0011811 -0.00472441 0.034252 -0.0637796 0.422835c-1.21299,9.23387 -1.77047,13.9406 0.816142,21.6484 2.73898,8.18268 -1.67599,17.0374 -9.85867,19.7764 -5.6752,1.9004 -11.6728,0.359055 -15.7299,-3.49488l-0.00472441 0.00472441c-7.81654,-7.41615 -13.6288,-14.4638 -18.5811,-22.3583 -4.78819,-7.63465 -8.62205,-15.8752 -12.6425,-25.9583 -7.65473,-19.1977 -8.68347,-40.252 -5.01142,-60.3154 3.97559,-21.7205 13.5626,-42.5185 26.2087,-58.539 11.739,-14.8725 24.0106,-28.2437 35.0563,-32.6811 20.4366,-8.20867 34.4209,-0.416929 35.374,36.7028z"/>
   </g>
   <g>
    <path id="_257326088" class="fil0" d="M755.349 1536.31c4.63111,7.26969 2.49331,16.9193 -4.77638,21.5516 -7.26969,4.63111 -16.9193,2.49331 -21.5516,-4.77638 -5.0315,-7.89449 -13.3347,-15.7158 -23.1744,-22.6217 -10.8874,-7.6441 -23.3882,-13.9122 -35.3528,-17.8169 -22.2,-7.24371 -56.8843,-6.46654 -87.8198,1.96536 -25.3169,6.89882 -47.3622,18.6414 -55.9961,34.7693 -4.05709,7.60749 -13.5154,10.4858 -21.1229,6.42875 -7.60749,-4.05827 -10.4858,-13.5154 -6.42875,-21.1229 13.1256,-24.5244 42.515,-41.2524 75.3449,-50.1981 36.4595,-9.93662 78.2032,-10.5709 105.696,-1.59921 14.8382,4.84134 30.2823,12.5764 43.6807,21.9815 12.8823,9.04253 24.1158,19.8508 31.5012,31.4386z"/>
    <path id="_257325200" class="fil0" d="M644.924 1493.39c-4.97717,5.3693 6.18071,-3.84685 7.58741,-2.07166 11.3717,14.341 24.9284,31.4386 8.29016,52.9654 -12.8185,16.5862 -36.1146,13.2815 -63.0142,9.46654 -23.6032,-3.34725 -51.0284,-7.23544 -65.4166,4.09016l-0.0248032 0.0200788c-7.58032,5.96811 -11.3362,8.92442 -14.9032,16.3252 -3.75355,7.77638 -13.1032,11.0386 -20.8795,7.28504 -5.63032,-2.71772 -8.89253,-8.36694 -8.84174,-14.2299 -0.361418,-10.5532 0.398032,-19.4551 2.30315,-28.2803 1.90394,-8.81103 4.90985,-17.3669 9.06142,-27.3638 7.92284,-19.0784 21.8965,-34.8685 38.5477,-46.6725 18.0414,-12.7902 39.4359,-20.9929 59.6575,-23.6256 18.7677,-2.4437 36.8752,-3.44055 47.8961,1.10315 20.387,8.40473 24.9709,23.7567 -0.263386,50.9882z"/>
   </g>
   <g>
    <path id="_257325368" class="fil0" d="M473.724 1203.12c-1.75748,8.45434 -10.037,13.8803 -18.4914,12.1228 -8.45316,-1.75748 -13.8791,-10.037 -12.1217,-18.4902 1.92402,-9.23032 1.45512,-20.6197 -0.753544,-32.3788 -2.46851,-13.1362 -7.03465,-26.3681 -12.8575,-37.4894 -10.8,-20.6303 -36.1772,-44.2725 -64.2544,-59.8689 -22.9051,-12.7217 -46.8768,-19.6925 -64.3642,-14.1638 -8.25119,2.60433 -17.0516,-1.97362 -19.6547,-10.2248 -2.60315,-8.25119 1.97362,-17.0516 10.2248,-19.6547 26.4768,-8.37402 59.2016,0.197244 88.9796,16.7374 32.9882,18.3236 63.3,47.0433 76.7434,72.7253 7.25316,13.8543 12.9083,30.1559 15.9189,46.1835 2.91614,15.528 3.42166,31.1138 0.630709,44.5016z"/>
    <path id="_257325392" class="fil0" d="M424.614 1095.28c-7.32166,0.367323 7.12205,1.56969 6.88938,3.83032 -1.87559,18.2079 -4.11496,39.9154 -31.0831,43.7079 -20.6977,2.91142 -35.0835,-15.7453 -51.6922,-37.2851 -14.5476,-18.8693 -31.4481,-40.7894 -49.6465,-42.7288l-0.0259843 -0.00354331 0 0.0011811c-9.59646,-1.02284 -14.3504,-1.52953 -22.0949,1.28504 -8.11536,2.94095 -17.0799,-1.25197 -20.0221,-9.36733 -2.03386,-5.61496 -0.65315,-11.635 3.07559,-15.7866l-0.0129921 -0.0106299c7.23071,-8.01024 14.1532,-14.0091 21.9543,-19.1764 7.54961,-4.99961 15.6756,-9.02717 25.6099,-13.2768 18.965,-8.10827 39.978,-9.64607 60.1382,-6.4689 21.8658,3.44882 42.9083,12.515 59.2123,24.7453 15.1807,11.387 28.8673,23.3339 33.561,34.239 8.71536,20.2417 1.25906,34.4256 -35.863,36.2953z"/>
   </g>
   <path id="_257325584" class="fil1" d="M1193.38 659.775l0 0zm-21.4937 -32.4118c-2.20394,-15.3803 -21.313,-29.0386 -37.7611,-40.7953 -18.8126,-13.448 -35.1036,-25.0937 -33.267,-42.7701 1.3748,-13.2319 8.03032,-19.702 16.3701,-23.2217 -1.26378,-0.707481 -2.51693,-1.35827 -3.75473,-1.95118 -9.56339,-4.57323 -20.9327,-8.03268 -32.2134,-9.72993 -10.0831,-1.5189 -19.7669,-1.57323 -27.5044,0.333071 -7.12087,1.75158 -14.3185,-2.60197 -16.0701,-9.7252 -1.7504,-7.12205 2.60315,-14.3185 9.7252,-16.0701 11.3185,-2.79213 24.5622,-2.84882 37.8024,-0.855119 13.6441,2.05512 27.6603,6.36497 39.7016,12.1228 5.61733,2.68583 11.4307,6.27874 17.2512,10.5921 3.88583,-17.2488 14.1662,-20.3858 27.9827,-15.0201 9.48308,3.6815 20.0457,14.9162 30.1559,27.4252 10.8874,13.4717 19.2331,31.0359 22.8213,49.4445 3.31418,16.9902 2.6374,34.8933 -3.69685,51.3237 -3.30118,8.57009 -6.46654,15.5847 -10.4551,22.1091 -4.12796,6.75591 -9.00473,12.8079 -15.5941,19.2 -3.40512,3.30709 -8.47796,4.67481 -13.3122,3.12284 -6.97914,-2.23937 -10.8224,-9.71576 -8.5819,-16.6949 2.14725,-6.65315 1.56969,-10.6843 0.403937,-18.8209l-0.00354331 -0.0188977zm234.725 262.922l0 0zm7.03938 -223.325c3.90591,-6.20434 12.1039,-8.06575 18.3071,-4.16103 9.83268,6.17363 19.0748,15.665 26.8666,26.5996 8.05276,11.3032 14.7047,24.3614 18.9047,36.9331 1.97008,5.90079 3.4252,12.5728 4.3689,19.7516 15.091,-9.17717 24.4902,-3.9567 30.241,9.7193 3.96142,9.4193 3.23622,24.7819 1.27677,40.6831 -2.10945,17.1354 -8.96339,35.3445 -19.7575,50.7981 -9.92835,14.2146 -23.2666,26.1815 -39.4477,33.0319 -8.41182,3.56221 -15.6555,6.15827 -23.1957,7.84253 -7.7256,1.72559 -15.4536,2.42481 -24.6036,2.12717 -4.74922,-0.154725 -9.26103,-2.86181 -11.4945,-7.42796 -3.21614,-6.57756 -0.49252,-14.5181 6.08504,-17.7354 6.24686,-3.06496 8.73308,-6.26812 13.7492,-12.7335l0.0200788 -0.0236221c9.52324,-12.2728 6.05434,-35.5618 3.06851,-55.6087 -3.39803,-22.8225 -6.34252,-42.587 7.70316,-53.6008 10.4421,-8.18741 19.7055,-7.89213 28.0193,-4.34292 -0.368504,-1.40079 -0.77126,-2.75433 -1.20591,-4.05591 -3.38977,-10.1445 -8.79686,-20.7378 -15.3685,-29.9622 -5.89252,-8.27127 -12.5882,-15.2646 -19.376,-19.526 -6.20434,-3.90591 -8.06694,-12.1039 -4.16103,-18.3083zm203.09 93.6568c-21.274,-47.8678 -71.2323,-70.6997 -121.263,-93.5658 -30.9815,-14.1591 -61.9985,-28.3358 -81.8268,-47.4615 -19.1528,-18.4713 -34.4953,-47.8843 -50.054,-77.7142 -26.5394,-50.8843 -53.6374,-102.837 -106.795,-123.281 -53.0823,-20.4166 -108.021,-0.00944883 -161.827,19.9784 -31.5603,11.7248 -62.68,23.2855 -89.1922,24.1583 -27.274,0.900001 -59.9186,-9.4004 -92.5276,-19.6902 -52.4185,-16.539 -104.761,-33.0555 -152.646,-11.7744 -47.8654,21.274 -70.6985,71.2323 -93.5635,121.262 -14.1591,30.9815 -28.337,62.0008 -47.4615,81.8292 -18.4725,19.1528 -47.8855,34.4941 -77.7154,50.0528 -50.8843,26.5394 -102.837,53.6386 -123.282,106.795 -20.4142,53.0811 -0.00826772,108.019 19.9807,161.825 11.7224,31.5603 23.2831,62.6812 24.1583,89.1946 0.89882,27.2729 -9.40158,59.9186 -19.6914,92.5276 -16.539,52.4197 -33.0544,104.763 -11.7744,152.645 21.274,47.8666 71.2323,70.6997 121.263,93.5646 30.9815,14.1602 61.9997,28.337 81.828,47.4615 19.1516,18.4713 34.4953,47.8855 50.0528,77.7154 26.5406,50.8843 53.6386,102.837 106.795,123.282 53.0811,20.4142 108.02,0.00826772 161.825,-19.9807 31.5614,-11.7224 62.6812,-23.2831 89.1946,-24.1583 27.274,-0.89882 59.9186,9.40158 92.5276,19.6914 52.4185,16.539 104.761,33.0544 152.645,11.7744 47.8642,-21.274 70.6997,-71.2335 93.5646,-121.264 14.1591,-30.9815 28.337,-61.9985 47.4603,-81.8268 18.4725,-19.1528 47.8855,-34.4941 77.7154,-50.0528 50.8843,-26.5394 102.837,-53.6386 123.282,-106.795 20.4142,-53.0811 0.00826772,-108.02 -19.9807,-161.825 -11.7224,-31.5614 -23.2831,-62.6812 -24.1583,-89.1957 -0.89882,-27.2729 9.40158,-59.9174 19.6914,-92.5276 16.539,-52.4185 33.0544,-104.761 11.7744,-152.643zm-592.562 -119.551c35.8335,0 65.3481,19.3902 94.1694,38.3268 14.2996,9.39568 28.4114,18.6673 42.176,24.489 14.2689,6.03544 31.4114,9.6567 48.5516,13.2768 32.2819,6.81969 64.565,13.6394 87.782,36.8563 23.2181,23.2181 30.0378,55.5012 36.8575,87.7831 3.6189,17.139 7.24016,34.2827 13.2756,48.5516 5.82284,13.7634 15.0933,27.8752 24.489,42.1748 18.9366,28.8213 38.328,58.3359 38.328,94.1705 0,35.8335 -19.3914,65.3481 -38.328,94.1694 -9.39568,14.2996 -18.6662,28.4114 -24.489,42.176 -6.03544,14.2689 -9.6567,31.4114 -13.2756,48.5504 -6.81969,32.2819 -13.6394,64.565 -36.8575,87.7831 -23.2169,23.2169 -55.5,30.0366 -87.782,36.8563 -17.1402,3.62008 -34.2827,7.24134 -48.5516,13.2768 -13.7646,5.82166 -27.8764,15.0933 -42.176,24.489 -28.8213,18.9366 -58.3359,38.328 -94.1694,38.328 -35.8347,0 -65.3481,-19.3914 -94.1694,-38.328 -14.3008,-9.39568 -28.4114,-18.6673 -42.176,-24.489 -14.2689,-6.03544 -31.4114,-9.6567 -48.5516,-13.2768 -32.2819,-6.81969 -64.565,-13.6394 -87.782,-36.8563 -23.2181,-23.2181 -30.0378,-55.5012 -36.8575,-87.7831 -3.6189,-17.139 -7.24016,-34.2815 -13.2756,-48.5504 -5.82284,-13.7646 -15.0945,-27.8764 -24.489,-42.176 -18.9366,-28.8213 -38.328,-58.3359 -38.328,-94.1694 0,-35.8347 19.3914,-65.3493 38.328,-94.1705 9.3945,-14.2996 18.6662,-28.4114 24.489,-42.1748 6.03544,-14.2689 9.6567,-31.4126 13.2756,-48.5516 6.81969,-32.2819 13.6394,-64.565 36.8575,-87.7831 23.2169,-23.2169 55.5,-30.0366 87.782,-36.8563 17.1402,-3.62008 34.2827,-7.24134 48.5516,-13.2768 13.7646,-5.82166 27.8752,-15.0933 42.176,-24.489 28.8213,-18.9366 58.3347,-38.3268 94.1694,-38.3268zm209.258 782.405c22.9748,-2.53229 42.8717,-4.72559 53.3103,9.68505 7.79764,10.7634 7.15276,20.0209 3.28819,28.2047 1.41851,-0.318898 2.79213,-0.669686 4.11496,-1.05709 10.1823,-2.9752 20.9587,-7.98426 30.4855,-14.2382l0.0236221 0.0366142c8.44725,-5.54882 15.6721,-11.9705 20.2087,-18.6236 4.1374,-6.06024 12.4028,-7.62048 18.463,-3.48544 6.06142,4.13622 7.62048,12.4039 3.48425,18.463 -6.51497,9.55513 -16.3595,18.4252 -27.6177,25.8177l-0.0236221 0.0153543 0.0236221 0.0366142c-11.5417,7.57678 -24.8587,13.7209 -37.663,17.4626 -5.9504,1.73858 -12.652,2.93504 -19.8378,3.60355 8.60079,15.4406 3.01536,24.6425 -10.8898,29.8772 -9.47481,3.56575 -24.8126,2.24292 -40.6701,-0.324803 -17.1473,-2.77914 -35.1048,-10.2969 -50.0493,-21.6059 -13.8248,-10.461 -25.2803,-24.2563 -31.5225,-40.7126 -3.22559,-8.50394 -5.53583,-15.8256 -6.93662,-23.4496 -1.43976,-7.84016 -1.85197,-15.587 -1.2189,-24.6591l0.0413386 0.00236221c0.32126,-4.75512 3.20433,-9.17599 7.86497,-11.2358 6.69213,-2.95748 14.5158,0.068504 17.4732,6.76064 2.79803,6.29764 5.92441,8.92087 12.2327,14.2122l0.0188977 0.0165354c11.9126,9.99213 35.2831,7.41497 55.3961,5.19804zm220.958 -276.122c14.1024,-18.3012 26.3185,-34.1481 43.9028,-31.6819 13.1788,1.85079 19.4055,8.74016 22.6229,17.204 0.750001,-1.23543 1.44449,-2.46142 2.07992,-3.67677 4.94292,-9.44646 8.8193,-20.6882 10.9122,-31.8484 1.87323,-9.98741 2.2689,-19.6618 0.63189,-27.5044 -1.49291,-7.17993 3.11693,-14.2134 10.298,-15.7063 7.17993,-1.49291 14.2134,3.11693 15.7063,10.298 2.37402,11.3705 1.94646,24.6095 -0.526772,37.8012 -2.55236,13.6122 -7.35473,27.4618 -13.5142,39.2339 -2.88425,5.51457 -6.68504,11.1945 -11.2063,16.8567 17.1236,4.50709 19.8933,14.9079 14.0256,28.5449 -3.9874,9.26221 -15.6106,19.415 -28.5047,29.0918 -13.8437,10.389 -31.7173,18.0957 -50.2937,21.0284 -17.1201,2.70591 -34.9689,1.40197 -51.0839,-5.48268 -8.43544,-3.60473 -15.3378,-7.0252 -21.7547,-11.2724 -6.33898,-4.19528 -12.0425,-9.10867 -18.0343,-15.6591 -3.62244,-3.52796 -5.0563,-8.97993 -3.22087,-14.0433 2.49803,-6.8941 10.1126,-10.4563 17.0067,-7.95709 6.39213,2.32087 10.3902,1.97835 18.0945,1.1563l0.516142 -0.0720473 0.0259843 -0.00236221 0.0011811 0.0165354 0.125197 -0.0141732 0.0283465 -0.00236221c15.4536,-1.65118 29.8075,-20.2748 42.1618,-36.3083zm-561.251 -508.947l0 0zm-42.9284 -87.2824c14.2122,9.94607 26.1662,23.2949 33,39.4748 3.55748,8.42127 6.14764,15.6673 7.82127,23.2016 1.72087,7.73623 2.41536,15.4642 2.10709,24.6059 -0.153543,4.7504 -2.86063,9.26221 -7.42796,11.4945 -6.57638,3.21733 -14.5181,0.49252 -17.7354,-6.08504 -3.03189,-6.19607 -6.25749,-8.70473 -12.7642,-13.7646l-0.0271654 -0.0200788c-12.2658,-9.53505 -35.5276,-6.09449 -55.552,-3.13229 -22.8319,3.37914 -42.6059,6.30355 -53.5949,-7.74095 -8.18859,-10.4646 -7.88268,-19.7362 -4.31929,-28.0512 -1.41732,0.372048 -2.78622,0.777166 -4.10315,1.21536 -10.0925,3.36024 -20.6705,8.75552 -29.9268,15.3366 -8.28426,5.88898 -15.2847,12.5776 -19.5484,19.3547 -3.90591,6.20315 -12.1039,8.06575 -18.3071,4.15985 -6.20434,-3.90591 -8.06694,-12.1039 -4.16103,-18.3071 6.1878,-9.83623 15.6862,-19.0701 26.6209,-26.8441 11.289,-8.02678 24.3709,-14.6681 37.0016,-18.8728 5.89252,-1.96181 12.5539,-3.40985 19.7185,-4.34528 -9.19489,-15.1347 -3.96378,-24.5421 9.73229,-30.2859 9.3567,-3.92363 24.7406,-3.17362 40.6843,-1.1941 17.1414,2.12717 35.3469,8.99646 50.7815,19.8zm-216.514 641.606c-9.47363,12.3721 -5.86418,35.5996 -2.75551,55.5933 3.54803,22.8366 6.62363,42.6177 -7.28386,53.667 -10.3961,8.25946 -19.6666,8.0315 -28.0075,4.54016 0.379134,1.40079 0.791339,2.75551 1.23543,4.05709 3.46536,10.161 8.93032,20.7166 15.5291,29.8536 5.93977,8.22757 12.6697,15.1677 19.4705,19.3784 6.23268,3.84922 8.16615,12.0236 4.31693,18.2551 -3.84922,6.23268 -12.0225,8.16615 -18.2563,4.31693 -9.88702,-6.1193 -19.2,-15.5599 -27.0638,-26.452 -8.15788,-11.2984 -14.9032,-24.3166 -19.1693,-36.8233 -2.00315,-5.87245 -3.49725,-12.5244 -4.47992,-19.6866 -15.039,9.27048 -24.476,4.09607 -30.3213,-9.56103 -3.99095,-9.32245 -3.35433,-24.6921 -1.49291,-40.63 2.00551,-17.1886 8.74135,-35.4591 19.4209,-50.9587 9.85276,-14.2996 23.1106,-26.3575 39.2138,-33.2977 8.34095,-3.5941 15.5575,-6.22914 23.1508,-7.97481 7.363,-1.69252 14.7827,-2.44488 23.5276,-2.29488 5.14961,-0.28937 10.2201,2.44725 12.6626,7.35709 3.27402,6.57756 0.595276,14.5654 -5.98111,17.8394 -6.3,3.14055 -8.75198,6.34134 -13.7008,12.802l-0.0153543 0.0188977zm271.057 261.069c18.5315,13.8154 34.5803,25.7811 32.3894,43.4221 -1.63937,13.1988 -8.41536,19.5402 -16.8154,22.898 1.24016,0.725197 2.47205,1.39606 3.68977,2.01024 9.52442,4.78937 20.8134,8.48386 31.9878,10.3961 10.05,1.71969 19.7315,1.9689 27.5091,0.216142 7.1504,-1.60866 14.2536,2.88662 15.8622,10.037 1.60866,7.15158 -2.88662,14.2547 -10.0382,15.8634 -11.3693,2.56299 -24.6095,2.35394 -37.8048,0.0968505 -13.6701,-2.33977 -27.6047,-6.92245 -39.476,-12.8941 -5.55237,-2.79331 -11.2866,-6.50197 -17.0138,-10.9347 -4.23662,17.1555 -14.5784,20.0799 -28.2921,14.4366 -9.38623,-3.86221 -19.7185,-15.3071 -29.5796,-28.0181 -10.6181,-13.6902 -18.6118,-31.4362 -21.8374,-49.9441 -2.96221,-17.0043 -1.9252,-34.8555 4.73386,-51.15 3.47599,-8.50985 6.78544,-15.4665 10.9051,-21.9142 4.30985,-6.74056 9.30591,-12.7075 15.9756,-18.9284l0.0177165 0.0188977c3.47008,-3.22323 8.55709,-4.47756 13.3476,-2.82756 6.92245,2.38347 10.6016,9.92954 8.21812,16.8508 -2.25118,6.5256 -1.75276,10.5898 -0.744095,18.7937l0.00236221 0.0248032c1.89331,15.4004 20.7414,29.452 36.9626,41.5465zm-242.36 -602.317l0 0zm-32.3823 21.4701l0 0zm-8.90906 -47.5489c8.57245,3.31063 15.5858,6.48071 22.1008,10.4717 6.75827,4.1374 12.8067,9.01772 19.1906,15.6071 3.30591,3.40512 4.67481,8.4756 3.12166,13.311 -2.23819,6.97914 -9.71457,10.8224 -16.6937,8.5819 -6.65788,-2.15315 -10.6854,-1.58032 -18.8103,-0.422835l-0.0295276 0.00472441c-15.3484,2.18858 -29.0421,21.313 -40.8284,37.774 -13.4457,18.7819 -25.0925,35.0433 -42.7902,33.1925 -13.2378,-1.38543 -19.7055,-8.04686 -23.2193,-16.389 -0.7063,1.26142 -1.35827,2.51103 -1.94882,3.74528 -4.58386,9.56576 -8.05394,20.9327 -9.75828,32.2051 -1.52599,10.0866 -1.59213,19.7717 0.309449,27.5032 1.75158,7.12323 -2.60197,14.3197 -9.7252,16.0701 -7.12323,1.75158 -14.3197,-2.60197 -16.0701,-9.7252 -2.78504,-11.3268 -2.83229,-24.5705 -0.830316,-37.8012 2.06339,-13.6488 6.38504,-27.6626 12.15,-39.6933 2.69055,-5.61851 6.29056,-11.4331 10.6099,-17.2536 -17.2465,-3.9 -20.3776,-14.1768 -15.0036,-27.9839 3.69213,-9.48544 14.9327,-20.041 27.4453,-30.137 13.474,-10.8744 31.0607,-19.2047 49.5107,-22.7894 16.9748,-3.29764 34.8626,-2.60906 51.2693,3.72874z"/>
  </g>
 </g>
 <rect class="fil2" width="2048" height="2048"/>
</svg>
